<?xml version="1.0"?>
<svg width="640" height="480" xmlns="http://www.w3.org/2000/svg" xmlns:svg="http://www.w3.org/2000/svg">
 <!-- Created with SVG-edit - https://github.com/SVG-Edit/svgedit-->
 <g class="layer">
  <title>Layer 1</title>
  <text fill="#ff00ff" font-family="serif" font-size="24" id="svg_1" stroke="#000000" stroke-dasharray="null" stroke-linecap="null" stroke-linejoin="null" stroke-width="0" text-anchor="middle" transform="matrix(6.72805 0 0 3.63144 -912.972 -377.2)" x="185.158619" xml:space="preserve" y="164.543886">betova</text>
  <polygon cx="530.5" cy="135.5" fill="#ff007f" id="svg_2" orient="point" point="5" points="523.5 110.965 527.858 123.502 541.128 123.772 530.551 131.791 534.395 144.495 523.5 136.914 512.605 144.495 516.449 131.791 505.872 123.772 519.142 123.502 523.5 110.965 527.858 123.502" r="18.535252" r2="7.414101" shape="star" stroke="#000000" stroke-width="0" strokeWidth="0" strokecolor="#000000"/>
  <polygon cx="531.5" cy="274.5" fill="#000000" id="svg_3" orient="point" point="5" r="0" r2="0" shape="star" strokeWidth="0" strokecolor="#000000"/>
  <polygon cx="407.5" cy="223.5" fill="#000000" id="svg_4" orient="point" point="5" points="407.5,223.5 407.5,223.5 407.5,223.5 407.5,223.5 407.5,223.5 407.5,223.5 407.5,223.5 407.5,223.5 407.5,223.5 407.5,223.5 407.5,223.5 407.5,223.5 " r="0" r2="0" shape="star" stroke="#000000" stroke-width="0" strokeWidth="0" strokecolor="#000000"/>
  <polygon cx="225.5" cy="177.5" fill="#000000" id="svg_5" orient="point" point="5" points="225.5,177.5 225.5,177.5 225.5,177.5 225.5,177.5 225.5,177.5 225.5,177.5 225.5,177.5 225.5,177.5 225.5,177.5 225.5,177.5 225.5,177.5 225.5,177.5 " r="0" r2="0" shape="star" stroke="#000000" stroke-width="0" strokeWidth="0" strokecolor="#000000"/>
  <polygon cx="225.5" cy="177.5" fill="#000000" id="svg_6" orient="point" point="5" r="0" r2="0" shape="star" strokeWidth="0" strokecolor="#000000"/>
  <polygon cx="530.5" cy="135.5" fill="#ff007f" id="svg_7" orient="point" point="5" points="95.5,96.73471069335938 99.85791015625,109.2718276977539 113.1280517578125,109.54225158691406 102.55120849609375,117.56103515625 106.394775390625,130.26528930664062 95.5,122.68406677246094 84.605224609375,130.26528930664062 88.44879150390625,117.56103515625 77.8719482421875,109.54225158691406 91.14208984375,109.2718276977539 95.5,96.73471069335938 99.85791015625,109.2718276977539 " r="18.535252" r2="7.414101" shape="star" stroke="#000000" stroke-width="0" strokeWidth="0" strokecolor="#000000"/>
  <polygon cx="530.5" cy="135.5" fill="#ff007f" id="svg_8" orient="point" point="5" points="529.5,226.73500061035156 533.8579711914062,239.27200317382812 547.1279907226562,239.54200744628906 536.551025390625,247.56100463867188 540.39501953125,260.26499938964844 529.5,252.6840057373047 518.60498046875,260.26499938964844 522.448974609375,247.56100463867188 511.87200927734375,239.54200744628906 525.1420288085938,239.27200317382812 529.5,226.73500061035156 533.8579711914062,239.27200317382812 " r="18.535252" r2="7.414101" shape="star" stroke="#000000" stroke-width="0" strokeWidth="0" strokecolor="#000000"/>
  <polygon cx="530.5" cy="135.5" fill="#ff007f" id="svg_9" orient="point" point="5" points="92.5,218.73500061035156 96.85797119140625,231.27200317382812 110.12799072265625,231.54200744628906 99.551025390625,239.56100463867188 103.39501953125,252.2650146484375 92.5,244.6840057373047 81.60498046875,252.2650146484375 85.448974609375,239.56100463867188 74.87200927734375,231.54200744628906 88.14202880859375,231.27200317382812 92.5,218.73500061035156 96.85797119140625,231.27200317382812 " r="18.535252" r2="7.414101" shape="star" stroke="#000000" stroke-width="0" strokeWidth="0" strokecolor="#000000"/>
  <text fill="#ff00ff" font-family="serif" font-size="24" id="svg_10" opacity="0.8" stroke="#000000" stroke-dasharray="null" stroke-linecap="null" stroke-linejoin="null" text-anchor="middle" x="311.5" xml:space="preserve" y="242.5">las mejores marcas al mejor precio</text>
 </g>
</svg>